<?xml version="1.0" encoding="utf-8"?>
<!-- Generator: Adobe Illustrator 23.0.1, SVG Export Plug-In . SVG Version: 6.00 Build 0)  -->
<svg version="1.1" id="Layer_1" xmlns="http://www.w3.org/2000/svg" xmlns:xlink="http://www.w3.org/1999/xlink" x="0px" y="0px"
	 viewBox="0 0 1000 1000" style="enable-background:new 0 0 1000 1000;" xml:space="preserve">
<style type="text/css">
	.st0{fill-rule:evenodd;clip-rule:evenodd;fill:#10A84B;}
	.st1{fill-rule:evenodd;clip-rule:evenodd;fill:#FFFFFF;}
</style>
<g>
	<path class="st0" d="M504.6,0.8C261.5,0.8,64.3,197.8,64.3,440.9c0,0.1,0,0.2,0,0.3c0,214.3,153.6,392.3,356.3,432.1v125.9
		c263.5-39.7,496.9-248.9,514.3-523.6c10.5-165.3-71.8-333.8-210.9-415.9c-8-4.8-16.1-9.3-24.4-13.4c-8.5-4.3-17.2-8.2-26-11.7
		c-2.8-1.2-5.6-2.3-8.4-3.4c-7.7-2.9-15.5-6.2-23.5-8.4C597.4,8.2,551.1,0.8,504.6,0.8L504.6,0.8z"/>
	<path class="st1" d="M595.4,163.8c-15.9-1.8-31.7,4.5-42,16.8c-8.1,10.9-13.1,21.2-18.5,31.9c-16.1,37.6-10.9,78,13.4,107.6
		c37.6-8.1,69.6-32.1,85.7-69.8c5.3-11,8.2-23.1,8.4-35.3C644,186.6,620.5,166.4,595.4,163.8z M399.6,166.4
		c-24.6,2.3-47.9,21.8-47.9,48.7c0,10.9,3,24.6,8.4,35.3c16.1,37.6,50.6,61.7,88.2,69.8c21.5-29.6,27.1-69.9,11-107.6
		c-5.4-10.9-10.5-21.4-18.5-29.4C430.7,171.1,415.2,164.8,399.6,166.4L399.6,166.4z M267.6,295.8c-42.4,2.2-61.4,55.5-26.1,83.2
		c10.9,8.1,21.2,14,31.9,19.3c37.6,16.1,81.2,10.6,113.5-10.9c-8.1-34.9-35.5-67.1-73.3-83.2c-13.4-5.4-24.4-8.4-37.8-8.4
		c-3-0.3-5.6-0.2-8.4,0L267.6,295.8z M681.9,458.8c-24.8-0.5-49.1,6.6-69.8,20.2c8.1,34.9,35.5,67.1,73.1,83.2
		c13.4,5.4,24.4,8.4,37.8,8.4c48.4,2.7,72.1-57.1,34.4-84c-10.9-8.1-21.2-13.1-31.9-18.5C711.8,462.2,697,459.1,681.9,458.8
		L681.9,458.8z M314.7,461.3c-14.8,0.3-29.6,3.2-43.7,9.4c-13.4,5.4-23.9,11.3-31.9,19.3c-34.9,29.6-11.4,85.9,37,83.2
		c13.4,0,27-3,37.8-8.4c37.6-16.1,64.4-48.4,69.8-83.2c-20.4-13.6-44.4-20.6-68.9-20.2L314.7,461.3z M450.8,543.7
		c-37.6,8.1-69.6,32.1-85.7,69.8c-5.4,10.9-8.4,23.7-8.4,34.4c-2.7,45.7,59.7,70.3,86.6,35.3c8.1-10.9,13.1-21.2,18.5-31.9
		C477.9,616.3,472.4,575.9,450.8,543.7L450.8,543.7z M550.7,546.2c-21.5,29.6-27,69.9-10.9,107.6c5.4,10.9,10.4,21.4,18.5,29.4
		c29.6,32.3,91.8,8.4,88.9-31.9c0-10.9-3-24.5-8.4-35.3c-16.1-37.6-50.6-61.7-88.2-69.8H550.7z"/>
</g>
</svg>
